<?xml version="1.0" encoding="UTF-8" standalone="no"?>
<!-- Created with Inkscape (http://www.inkscape.org/) -->
<svg xmlns:dc="http://purl.org/dc/elements/1.1/" xmlns:cc="http://creativecommons.org/ns#" xmlns:rdf="http://www.w3.org/1999/02/22-rdf-syntax-ns#" xmlns:svg="http://www.w3.org/2000/svg" xmlns="http://www.w3.org/2000/svg" xmlns:xlink="http://www.w3.org/1999/xlink" xmlns:sodipodi="http://sodipodi.sourceforge.net/DTD/sodipodi-0.dtd" xmlns:inkscape="http://www.inkscape.org/namespaces/inkscape" width="732.96021" height="560.48987" id="svg2" sodipodi:version="0.32" inkscape:version="0.46" sodipodi:docname="OVINI.svg" inkscape:output_extension="org.inkscape.output.svg.inkscape" version="1.0" inkscape:export-filename="/home/ricardo/Desktop/OVINI.png" inkscape:export-xdpi="90" inkscape:export-ydpi="90">
  <defs id="defs4">
    <linearGradient inkscape:collect="always" id="linearGradient3990">
      <stop style="stop-color:#ffffff;stop-opacity:1;" offset="0" id="stop3992"/>
      <stop style="stop-color:#ffffff;stop-opacity:0;" offset="1" id="stop3994"/>
    </linearGradient>
    <linearGradient id="linearGradient3980">
      <stop style="stop-color:#ffc800;stop-opacity:1;" offset="0" id="stop3982"/>
      <stop style="stop-color:#c57101;stop-opacity:1;" offset="1" id="stop3984"/>
    </linearGradient>
    <linearGradient id="linearGradient3806">
      <stop style="stop-color:#570000;stop-opacity:1;" offset="0" id="stop3808"/>
      <stop style="stop-color:#ce0000;stop-opacity:1;" offset="1" id="stop3810"/>
    </linearGradient>
    <linearGradient id="linearGradient3798">
      <stop style="stop-color:#570000;stop-opacity:1;" offset="0" id="stop3800"/>
      <stop style="stop-color:#ff0000;stop-opacity:1;" offset="1" id="stop3802"/>
    </linearGradient>
    <linearGradient id="linearGradient3316">
      <stop style="stop-color:#ffffff;stop-opacity:1;" offset="0" id="stop3318"/>
      <stop id="stop3330" offset="0.20129791" style="stop-color:#bf7f7f;stop-opacity:1;"/>
      <stop id="stop3324" offset="0.22086854" style="stop-color:#800000;stop-opacity:1;"/>
      <stop style="stop-color:#630000;stop-opacity:1;" offset="0.26031825" id="stop3328"/>
      <stop style="stop-color:#170000;stop-opacity:1;" offset="1" id="stop3320"/>
    </linearGradient>
    <linearGradient id="linearGradient3298">
      <stop style="stop-color:#ffffff;stop-opacity:1;" offset="0" id="stop3300"/>
      <stop style="stop-color:#000000;stop-opacity:1;" offset="1" id="stop3302"/>
    </linearGradient>
    <linearGradient id="linearGradient3190">
      <stop style="stop-color:#b3b3b3;stop-opacity:1;" offset="0" id="stop3192"/>
      <stop style="stop-color:#686868;stop-opacity:1;" offset="1" id="stop3194"/>
    </linearGradient>
    <linearGradient id="linearGradient3182">
      <stop style="stop-color:#d0e2f0;stop-opacity:1;" offset="0" id="stop3184"/>
      <stop style="stop-color:#919191;stop-opacity:1;" offset="1" id="stop3186"/>
    </linearGradient>
    <inkscape:perspective sodipodi:type="inkscape:persp3d" inkscape:vp_x="0 : 526.18109 : 1" inkscape:vp_y="0 : 1000 : 0" inkscape:vp_z="744.09448 : 526.18109 : 1" inkscape:persp3d-origin="372.04724 : 350.78739 : 1" id="perspective10"/>
    <inkscape:perspective id="perspective2390" inkscape:persp3d-origin="372.04724 : 350.78739 : 1" inkscape:vp_z="744.09448 : 526.18109 : 1" inkscape:vp_y="0 : 1000 : 0" inkscape:vp_x="0 : 526.18109 : 1" sodipodi:type="inkscape:persp3d"/>
    <filter inkscape:collect="always" id="filter3792" x="-0.083453722" width="1.1669074" y="-0.5139724" height="2.0279448">
      <feGaussianBlur inkscape:collect="always" stdDeviation="19.681091" id="feGaussianBlur3794"/>
    </filter>
    <linearGradient inkscape:collect="always" xlink:href="#linearGradient3798" id="linearGradient3804" x1="371.53983" y1="481.61652" x2="376.15237" y2="577.07043" gradientUnits="userSpaceOnUse"/>
    <radialGradient inkscape:collect="always" xlink:href="#linearGradient3806" id="radialGradient3812" cx="390" cy="515.2193" fx="390" fy="515.2193" r="285.71429" gradientTransform="matrix(1, 0, 0, 0.135, 0, 445.665)" gradientUnits="userSpaceOnUse"/>
    <filter inkscape:collect="always" id="filter3976" x="-0.16692244" width="1.3338449" y="-0.17726927" height="1.3545384">
      <feGaussianBlur inkscape:collect="always" stdDeviation="1.2865167" id="feGaussianBlur3978"/>
    </filter>
    <linearGradient inkscape:collect="always" xlink:href="#linearGradient3980" id="linearGradient3986" x1="166.91562" y1="649.41412" x2="165.94153" y2="666.73883" gradientUnits="userSpaceOnUse"/>
    <linearGradient inkscape:collect="always" xlink:href="#linearGradient3990" id="linearGradient3996" x1="157.42528" y1="652.82751" x2="172.0612" y2="671.95984" gradientUnits="userSpaceOnUse"/>
    <filter inkscape:collect="always" id="filter4174" x="-0.14605713" width="1.2921143" y="-0.15511061" height="1.3102212">
      <feGaussianBlur inkscape:collect="always" stdDeviation="1.1257021" id="feGaussianBlur4176"/>
    </filter>
    <linearGradient inkscape:collect="always" xlink:href="#linearGradient3980" id="linearGradient4191" gradientUnits="userSpaceOnUse" x1="166.91562" y1="649.41412" x2="165.94153" y2="666.73883"/>
    <linearGradient inkscape:collect="always" xlink:href="#linearGradient3990" id="linearGradient4193" gradientUnits="userSpaceOnUse" x1="157.42528" y1="652.82751" x2="172.0612" y2="671.95984"/>
    <linearGradient inkscape:collect="always" xlink:href="#linearGradient3980" id="linearGradient4203" gradientUnits="userSpaceOnUse" x1="166.91562" y1="649.41412" x2="165.94153" y2="666.73883"/>
    <linearGradient inkscape:collect="always" xlink:href="#linearGradient3990" id="linearGradient4205" gradientUnits="userSpaceOnUse" x1="157.42528" y1="652.82751" x2="172.0612" y2="671.95984"/>
    <linearGradient inkscape:collect="always" xlink:href="#linearGradient3980" id="linearGradient4215" gradientUnits="userSpaceOnUse" x1="166.91562" y1="649.41412" x2="165.94153" y2="666.73883"/>
    <linearGradient inkscape:collect="always" xlink:href="#linearGradient3990" id="linearGradient4217" gradientUnits="userSpaceOnUse" x1="157.42528" y1="652.82751" x2="172.0612" y2="671.95984"/>
    <linearGradient inkscape:collect="always" xlink:href="#linearGradient3980" id="linearGradient4227" gradientUnits="userSpaceOnUse" x1="166.91562" y1="649.41412" x2="165.94153" y2="666.73883"/>
    <linearGradient inkscape:collect="always" xlink:href="#linearGradient3990" id="linearGradient4229" gradientUnits="userSpaceOnUse" x1="157.42528" y1="652.82751" x2="172.0612" y2="671.95984"/>
    <linearGradient inkscape:collect="always" xlink:href="#linearGradient3980" id="linearGradient4239" gradientUnits="userSpaceOnUse" x1="166.91562" y1="649.41412" x2="165.94153" y2="666.73883"/>
    <linearGradient inkscape:collect="always" xlink:href="#linearGradient3990" id="linearGradient4241" gradientUnits="userSpaceOnUse" x1="157.42528" y1="652.82751" x2="172.0612" y2="671.95984"/>
    <linearGradient inkscape:collect="always" xlink:href="#linearGradient3980" id="linearGradient4251" gradientUnits="userSpaceOnUse" x1="166.91562" y1="649.41412" x2="165.94153" y2="666.73883"/>
    <linearGradient inkscape:collect="always" xlink:href="#linearGradient3990" id="linearGradient4253" gradientUnits="userSpaceOnUse" x1="157.42528" y1="652.82751" x2="172.0612" y2="671.95984"/>
    <linearGradient inkscape:collect="always" xlink:href="#linearGradient3980" id="linearGradient4263" gradientUnits="userSpaceOnUse" x1="166.91562" y1="649.41412" x2="165.94153" y2="666.73883"/>
    <linearGradient inkscape:collect="always" xlink:href="#linearGradient3990" id="linearGradient4265" gradientUnits="userSpaceOnUse" x1="157.42528" y1="652.82751" x2="172.0612" y2="671.95984"/>
    <linearGradient inkscape:collect="always" xlink:href="#linearGradient3980" id="linearGradient4275" gradientUnits="userSpaceOnUse" x1="166.91562" y1="649.41412" x2="165.94153" y2="666.73883"/>
    <linearGradient inkscape:collect="always" xlink:href="#linearGradient3990" id="linearGradient4277" gradientUnits="userSpaceOnUse" x1="157.42528" y1="652.82751" x2="172.0612" y2="671.95984"/>
    <linearGradient inkscape:collect="always" xlink:href="#linearGradient3980" id="linearGradient4287" gradientUnits="userSpaceOnUse" x1="166.91562" y1="649.41412" x2="165.94153" y2="666.73883"/>
    <linearGradient inkscape:collect="always" xlink:href="#linearGradient3990" id="linearGradient4289" gradientUnits="userSpaceOnUse" x1="157.42528" y1="652.82751" x2="172.0612" y2="671.95984"/>
    <linearGradient inkscape:collect="always" xlink:href="#linearGradient3980" id="linearGradient4317" x1="337.53467" y1="467.82761" x2="347.13718" y2="507.345" gradientUnits="userSpaceOnUse"/>
    <linearGradient inkscape:collect="always" xlink:href="#linearGradient3980" id="linearGradient5521" gradientUnits="userSpaceOnUse" x1="166.91562" y1="649.41412" x2="165.94153" y2="666.73883"/>
    <linearGradient inkscape:collect="always" xlink:href="#linearGradient3990" id="linearGradient5523" gradientUnits="userSpaceOnUse" x1="157.42528" y1="652.82751" x2="172.0612" y2="671.95984"/>
    <linearGradient inkscape:collect="always" xlink:href="#linearGradient3980" id="linearGradient5579" gradientUnits="userSpaceOnUse" x1="337.53467" y1="467.82761" x2="347.13718" y2="507.345"/>
    <radialGradient inkscape:collect="always" xlink:href="#linearGradient3806" id="radialGradient5581" gradientUnits="userSpaceOnUse" gradientTransform="matrix(1, 0, 0, 0.135, 0, 445.665)" cx="390" cy="515.2193" fx="390" fy="515.2193" r="285.71429"/>
    <linearGradient inkscape:collect="always" xlink:href="#linearGradient3798" id="linearGradient5583" gradientUnits="userSpaceOnUse" x1="371.53983" y1="481.61652" x2="376.15237" y2="577.07043"/>
    <linearGradient inkscape:collect="always" xlink:href="#linearGradient3980" id="linearGradient5585" gradientUnits="userSpaceOnUse" x1="166.91562" y1="649.41412" x2="165.94153" y2="666.73883"/>
    <linearGradient inkscape:collect="always" xlink:href="#linearGradient3990" id="linearGradient5587" gradientUnits="userSpaceOnUse" x1="157.42528" y1="652.82751" x2="172.0612" y2="671.95984"/>
    <linearGradient inkscape:collect="always" xlink:href="#linearGradient3980" id="linearGradient5589" gradientUnits="userSpaceOnUse" x1="166.91562" y1="649.41412" x2="165.94153" y2="666.73883"/>
    <linearGradient inkscape:collect="always" xlink:href="#linearGradient3990" id="linearGradient5591" gradientUnits="userSpaceOnUse" x1="157.42528" y1="652.82751" x2="172.0612" y2="671.95984"/>
    <linearGradient inkscape:collect="always" xlink:href="#linearGradient3980" id="linearGradient5593" gradientUnits="userSpaceOnUse" x1="166.91562" y1="649.41412" x2="165.94153" y2="666.73883"/>
    <linearGradient inkscape:collect="always" xlink:href="#linearGradient3990" id="linearGradient5595" gradientUnits="userSpaceOnUse" x1="157.42528" y1="652.82751" x2="172.0612" y2="671.95984"/>
    <linearGradient inkscape:collect="always" xlink:href="#linearGradient3980" id="linearGradient5597" gradientUnits="userSpaceOnUse" x1="166.91562" y1="649.41412" x2="165.94153" y2="666.73883"/>
    <linearGradient inkscape:collect="always" xlink:href="#linearGradient3990" id="linearGradient5599" gradientUnits="userSpaceOnUse" x1="157.42528" y1="652.82751" x2="172.0612" y2="671.95984"/>
    <linearGradient inkscape:collect="always" xlink:href="#linearGradient3980" id="linearGradient5601" gradientUnits="userSpaceOnUse" x1="166.91562" y1="649.41412" x2="165.94153" y2="666.73883"/>
    <linearGradient inkscape:collect="always" xlink:href="#linearGradient3990" id="linearGradient5603" gradientUnits="userSpaceOnUse" x1="157.42528" y1="652.82751" x2="172.0612" y2="671.95984"/>
    <linearGradient inkscape:collect="always" xlink:href="#linearGradient3980" id="linearGradient5605" gradientUnits="userSpaceOnUse" x1="166.91562" y1="649.41412" x2="165.94153" y2="666.73883"/>
    <linearGradient inkscape:collect="always" xlink:href="#linearGradient3990" id="linearGradient5607" gradientUnits="userSpaceOnUse" x1="157.42528" y1="652.82751" x2="172.0612" y2="671.95984"/>
    <linearGradient inkscape:collect="always" xlink:href="#linearGradient3980" id="linearGradient5609" gradientUnits="userSpaceOnUse" x1="166.91562" y1="649.41412" x2="165.94153" y2="666.73883"/>
    <linearGradient inkscape:collect="always" xlink:href="#linearGradient3990" id="linearGradient5611" gradientUnits="userSpaceOnUse" x1="157.42528" y1="652.82751" x2="172.0612" y2="671.95984"/>
    <linearGradient inkscape:collect="always" xlink:href="#linearGradient3980" id="linearGradient5613" gradientUnits="userSpaceOnUse" x1="166.91562" y1="649.41412" x2="165.94153" y2="666.73883"/>
    <linearGradient inkscape:collect="always" xlink:href="#linearGradient3990" id="linearGradient5615" gradientUnits="userSpaceOnUse" x1="157.42528" y1="652.82751" x2="172.0612" y2="671.95984"/>
    <linearGradient inkscape:collect="always" xlink:href="#linearGradient3980" id="linearGradient5617" gradientUnits="userSpaceOnUse" x1="166.91562" y1="649.41412" x2="165.94153" y2="666.73883"/>
    <linearGradient inkscape:collect="always" xlink:href="#linearGradient3990" id="linearGradient5619" gradientUnits="userSpaceOnUse" x1="157.42528" y1="652.82751" x2="172.0612" y2="671.95984"/>
    <linearGradient inkscape:collect="always" xlink:href="#linearGradient3980" id="linearGradient5621" gradientUnits="userSpaceOnUse" x1="166.91562" y1="649.41412" x2="165.94153" y2="666.73883"/>
    <linearGradient inkscape:collect="always" xlink:href="#linearGradient3990" id="linearGradient5623" gradientUnits="userSpaceOnUse" x1="157.42528" y1="652.82751" x2="172.0612" y2="671.95984"/>
    <linearGradient inkscape:collect="always" xlink:href="#linearGradient3980" id="linearGradient5625" gradientUnits="userSpaceOnUse" x1="166.91562" y1="649.41412" x2="165.94153" y2="666.73883"/>
    <linearGradient inkscape:collect="always" xlink:href="#linearGradient3990" id="linearGradient5627" gradientUnits="userSpaceOnUse" x1="157.42528" y1="652.82751" x2="172.0612" y2="671.95984"/>
    <filter inkscape:collect="always" id="filter5723">
      <feGaussianBlur inkscape:collect="always" stdDeviation="7.8527728" id="feGaussianBlur5725"/>
    </filter>
    <linearGradient inkscape:collect="always" xlink:href="#linearGradient3980" id="linearGradient6033" gradientUnits="userSpaceOnUse" x1="337.53467" y1="467.82761" x2="347.13718" y2="507.345"/>
    <radialGradient inkscape:collect="always" xlink:href="#linearGradient3806" id="radialGradient6035" gradientUnits="userSpaceOnUse" gradientTransform="matrix(1, 0, 0, 0.135, 0, 445.665)" cx="390" cy="515.2193" fx="390" fy="515.2193" r="285.71429"/>
    <linearGradient inkscape:collect="always" xlink:href="#linearGradient3798" id="linearGradient6037" gradientUnits="userSpaceOnUse" x1="371.53983" y1="481.61652" x2="376.15237" y2="577.07043"/>
    <linearGradient inkscape:collect="always" xlink:href="#linearGradient3980" id="linearGradient6039" gradientUnits="userSpaceOnUse" x1="166.91562" y1="649.41412" x2="165.94153" y2="666.73883"/>
    <linearGradient inkscape:collect="always" xlink:href="#linearGradient3990" id="linearGradient6041" gradientUnits="userSpaceOnUse" x1="157.42528" y1="652.82751" x2="172.0612" y2="671.95984"/>
    <linearGradient inkscape:collect="always" xlink:href="#linearGradient3980" id="linearGradient6043" gradientUnits="userSpaceOnUse" x1="166.91562" y1="649.41412" x2="165.94153" y2="666.73883"/>
    <linearGradient inkscape:collect="always" xlink:href="#linearGradient3990" id="linearGradient6045" gradientUnits="userSpaceOnUse" x1="157.42528" y1="652.82751" x2="172.0612" y2="671.95984"/>
    <linearGradient inkscape:collect="always" xlink:href="#linearGradient3980" id="linearGradient6047" gradientUnits="userSpaceOnUse" x1="166.91562" y1="649.41412" x2="165.94153" y2="666.73883"/>
    <linearGradient inkscape:collect="always" xlink:href="#linearGradient3990" id="linearGradient6049" gradientUnits="userSpaceOnUse" x1="157.42528" y1="652.82751" x2="172.0612" y2="671.95984"/>
    <linearGradient inkscape:collect="always" xlink:href="#linearGradient3980" id="linearGradient6051" gradientUnits="userSpaceOnUse" x1="166.91562" y1="649.41412" x2="165.94153" y2="666.73883"/>
    <linearGradient inkscape:collect="always" xlink:href="#linearGradient3990" id="linearGradient6053" gradientUnits="userSpaceOnUse" x1="157.42528" y1="652.82751" x2="172.0612" y2="671.95984"/>
    <linearGradient inkscape:collect="always" xlink:href="#linearGradient3980" id="linearGradient6055" gradientUnits="userSpaceOnUse" x1="166.91562" y1="649.41412" x2="165.94153" y2="666.73883"/>
    <linearGradient inkscape:collect="always" xlink:href="#linearGradient3990" id="linearGradient6057" gradientUnits="userSpaceOnUse" x1="157.42528" y1="652.82751" x2="172.0612" y2="671.95984"/>
    <linearGradient inkscape:collect="always" xlink:href="#linearGradient3980" id="linearGradient6059" gradientUnits="userSpaceOnUse" x1="166.91562" y1="649.41412" x2="165.94153" y2="666.73883"/>
    <linearGradient inkscape:collect="always" xlink:href="#linearGradient3990" id="linearGradient6061" gradientUnits="userSpaceOnUse" x1="157.42528" y1="652.82751" x2="172.0612" y2="671.95984"/>
    <linearGradient inkscape:collect="always" xlink:href="#linearGradient3980" id="linearGradient6063" gradientUnits="userSpaceOnUse" x1="166.91562" y1="649.41412" x2="165.94153" y2="666.73883"/>
    <linearGradient inkscape:collect="always" xlink:href="#linearGradient3990" id="linearGradient6065" gradientUnits="userSpaceOnUse" x1="157.42528" y1="652.82751" x2="172.0612" y2="671.95984"/>
    <linearGradient inkscape:collect="always" xlink:href="#linearGradient3980" id="linearGradient6067" gradientUnits="userSpaceOnUse" x1="166.91562" y1="649.41412" x2="165.94153" y2="666.73883"/>
    <linearGradient inkscape:collect="always" xlink:href="#linearGradient3990" id="linearGradient6069" gradientUnits="userSpaceOnUse" x1="157.42528" y1="652.82751" x2="172.0612" y2="671.95984"/>
    <linearGradient inkscape:collect="always" xlink:href="#linearGradient3980" id="linearGradient6071" gradientUnits="userSpaceOnUse" x1="166.91562" y1="649.41412" x2="165.94153" y2="666.73883"/>
    <linearGradient inkscape:collect="always" xlink:href="#linearGradient3990" id="linearGradient6073" gradientUnits="userSpaceOnUse" x1="157.42528" y1="652.82751" x2="172.0612" y2="671.95984"/>
    <linearGradient inkscape:collect="always" xlink:href="#linearGradient3980" id="linearGradient6075" gradientUnits="userSpaceOnUse" x1="166.91562" y1="649.41412" x2="165.94153" y2="666.73883"/>
    <linearGradient inkscape:collect="always" xlink:href="#linearGradient3990" id="linearGradient6077" gradientUnits="userSpaceOnUse" x1="157.42528" y1="652.82751" x2="172.0612" y2="671.95984"/>
    <linearGradient inkscape:collect="always" xlink:href="#linearGradient3980" id="linearGradient6079" gradientUnits="userSpaceOnUse" x1="166.91562" y1="649.41412" x2="165.94153" y2="666.73883"/>
    <linearGradient inkscape:collect="always" xlink:href="#linearGradient3990" id="linearGradient6081" gradientUnits="userSpaceOnUse" x1="157.42528" y1="652.82751" x2="172.0612" y2="671.95984"/>
  </defs>
  <sodipodi:namedview id="base" pagecolor="#ffffff" bordercolor="#666666" borderopacity="1.0" inkscape:pageopacity="0.0" inkscape:pageshadow="2" inkscape:zoom="0.7" inkscape:cx="347.8749" inkscape:cy="459.79589" inkscape:document-units="px" inkscape:current-layer="layer1" showgrid="false" inkscape:window-width="1440" inkscape:window-height="846" inkscape:window-x="0" inkscape:window-y="54"/>
  <metadata id="metadata7">
    <rdf:RDF>
      <cc:Work rdf:about="">
        <dc:format>image/svg+xml</dc:format>
        <dc:type rdf:resource="http://purl.org/dc/dcmitype/StillImage"/>
      </cc:Work>
    </rdf:RDF>
  </metadata>
  <g inkscape:label="Camada 1" inkscape:groupmode="layer" id="layer1" transform="translate(-56.1112, -135.229)">
    <g id="g5977" transform="translate(-4.28571, -108.571)">
      <g inkscape:export-ydpi="90" inkscape:export-xdpi="90" inkscape:export-filename="/home/ricardo/Desktop/disco.png" transform="translate(-67.1429, -285.714)" id="g5525">
        <path transform="matrix(0.561445, -0.0587816, -0.205823, 1.54572, 287.652, -181.99)" d="M 675.71429,515.2193 A 285.71429,38.57143 0 1 1 104.28571,515.2193 A 285.71429,38.57143 0 1 1 675.71429,515.2193 z" sodipodi:ry="38.57143" sodipodi:rx="285.71429" sodipodi:cy="515.2193" sodipodi:cx="390" id="path3312" style="opacity:0.84879725;fill:url(#linearGradient6033);fill-opacity:1;stroke:none;stroke-width:1;stroke-miterlimit:4;stroke-dasharray:none;stroke-opacity:1" sodipodi:type="arc"/>
        <path sodipodi:type="arc" style="opacity:1;fill:url(#radialGradient6035);fill-opacity:1;stroke:none;stroke-width:1;stroke-miterlimit:4;stroke-dasharray:none;stroke-opacity:1" id="path3310" sodipodi:cx="390" sodipodi:cy="515.2193" sodipodi:rx="285.71429" sodipodi:ry="38.57143" d="M 675.71429,515.2193 A 285.71429,38.57143 0 1 1 104.28571,515.2193 A 285.71429,38.57143 0 1 1 675.71429,515.2193 z" transform="matrix(0.990156, -0.152554, 0.220322, 1.69707, -89.1036, -190.791)"/>
        <path transform="matrix(0.990156, -0.149783, 0.220322, 1.66624, -89.1036, -170.56)" d="M 675.71429,515.2193 A 285.71429,38.57143 0 1 1 104.28571,515.2193 A 285.71429,38.57143 0 1 1 675.71429,515.2193 z" sodipodi:ry="38.57143" sodipodi:rx="285.71429" sodipodi:cy="515.2193" sodipodi:cx="390" id="path3824" style="opacity:0.74226804;fill:#570000;fill-opacity:1;stroke:none;stroke-width:1;stroke-miterlimit:4;stroke-dasharray:none;stroke-opacity:1" sodipodi:type="arc"/>
        <path transform="matrix(0.990036, -0.140816, 0.221655, 1.55839, -87.7436, -115.489)" d="M 675.71429,515.2193 A 285.71429,38.57143 0 1 1 104.28571,515.2193 A 285.71429,38.57143 0 1 1 675.71429,515.2193 z" sodipodi:ry="38.57143" sodipodi:rx="285.71429" sodipodi:cy="515.2193" sodipodi:cx="390" id="path3306" style="opacity:1;fill:url(#linearGradient6037);fill-opacity:1;stroke:none;stroke-width:1;stroke-miterlimit:4;stroke-dasharray:none;stroke-opacity:1" sodipodi:type="arc"/>
        <path transform="matrix(0.472692, -0.0672328, 0.105829, 0.744053, 179.056, 292.816)" d="M 675.71429,515.2193 A 285.71429,38.57143 0 1 1 104.28571,515.2193 A 285.71429,38.57143 0 1 1 675.71429,515.2193 z" sodipodi:ry="38.57143" sodipodi:rx="285.71429" sodipodi:cy="515.2193" sodipodi:cx="390" id="path3674" style="opacity:1;fill:#b3b3b3;fill-opacity:1;stroke:#000000;stroke-width:5.28944063;stroke-miterlimit:4;stroke-dasharray:none;stroke-opacity:1" sodipodi:type="arc"/>
        <path sodipodi:type="arc" style="opacity:1;fill:#ffffff;fill-opacity:1;stroke:#000000;stroke-width:5.28944063;stroke-miterlimit:4;stroke-dasharray:none;stroke-opacity:1" id="path3308" sodipodi:cx="390" sodipodi:cy="515.2193" sodipodi:rx="285.71429" sodipodi:ry="38.57143" d="M 675.71429,515.2193 A 285.71429,38.57143 0 1 1 104.28571,515.2193 A 285.71429,38.57143 0 1 1 675.71429,515.2193 z" transform="matrix(0.388716, -0.0552885, 0.0870283, 0.611868, 224.351, 360.678)"/>
        <path transform="matrix(0.388716, -0.0552885, 0.0870283, 0.611868, 223.208, 359.25)" d="M 675.71429,515.2193 A 285.71429,38.57143 0 1 1 104.28571,515.2193 A 285.71429,38.57143 0 1 1 675.71429,515.2193 z" sodipodi:ry="38.57143" sodipodi:rx="285.71429" sodipodi:cy="515.2193" sodipodi:cx="390" id="path3472" style="opacity:1;fill:#ffffff;fill-opacity:1;stroke:none;stroke-width:5.28944063;stroke-miterlimit:4;stroke-dasharray:none;stroke-opacity:1;filter:url(#filter3792)" sodipodi:type="arc"/>
        <path sodipodi:type="arc" style="opacity:1;fill:#ffffff;fill-opacity:1;stroke:none;stroke-width:5.28944063;stroke-miterlimit:4;stroke-dasharray:none;stroke-opacity:1;filter:url(#filter3792)" id="path3796" sodipodi:cx="390" sodipodi:cy="515.2193" sodipodi:rx="285.71429" sodipodi:ry="38.57143" d="M 675.71429,515.2193 A 285.71429,38.57143 0 1 1 104.28571,515.2193 A 285.71429,38.57143 0 1 1 675.71429,515.2193 z" transform="matrix(0.388716, -0.0552885, 0.0870283, 0.611868, 221.779, 359.821)"/>
        <g id="g4178">
          <path sodipodi:type="arc" style="opacity:1;fill:#000000;fill-opacity:1;stroke:none;stroke-width:1.60300004;stroke-miterlimit:4;stroke-dasharray:none;stroke-opacity:1;filter:url(#filter3976)" id="path3834" sodipodi:cx="166.42857" sodipodi:cy="658.07648" sodipodi:rx="9.2857141" sodipodi:ry="8.5714283" d="M 175.71429,658.07648 A 9.2857141,8.5714283 0 1 1 157.14286,658.07648 A 9.2857141,8.5714283 0 1 1 175.71429,658.07648 z" transform="matrix(0.994656, -0.103245, 0.0559243, 0.538772, 188.373, 247.492)"/>
          <path transform="matrix(0.994656, -0.103245, 0.0559243, 0.538772, 188.373, 248.206)" d="M 175.71429,658.07648 A 9.2857141,8.5714283 0 1 1 157.14286,658.07648 A 9.2857141,8.5714283 0 1 1 175.71429,658.07648 z" sodipodi:ry="8.5714283" sodipodi:rx="9.2857141" sodipodi:cy="658.07648" sodipodi:cx="166.42857" id="path3832" style="opacity:1;fill:url(#linearGradient6039);fill-opacity:1;stroke:none;stroke-width:1.60300004;stroke-miterlimit:4;stroke-dasharray:none;stroke-opacity:1" sodipodi:type="arc"/>
          <path sodipodi:type="arc" style="opacity:1;fill:url(#linearGradient6041);fill-opacity:1;stroke:none;stroke-width:1.60300004;stroke-miterlimit:4;stroke-dasharray:none;stroke-opacity:1;filter:url(#filter4174)" id="path3988" sodipodi:cx="166.42857" sodipodi:cy="658.07648" sodipodi:rx="9.2857141" sodipodi:ry="8.5714283" d="M 175.71429,658.07648 A 9.2857141,8.5714283 0 1 1 157.14286,658.07648 A 9.2857141,8.5714283 0 1 1 175.71429,658.07648 z" transform="matrix(0.994656, -0.103245, 0.0559243, 0.538772, 188.373, 248.206)"/>
        </g>
        <g id="g4183" transform="matrix(0.788859, 0, 0, 0.788859, 178.4, 116.493)">
          <path transform="matrix(0.994656, -0.103245, 0.0559243, 0.538772, 188.373, 247.492)" d="M 175.71429,658.07648 A 9.2857141,8.5714283 0 1 1 157.14286,658.07648 A 9.2857141,8.5714283 0 1 1 175.71429,658.07648 z" sodipodi:ry="8.5714283" sodipodi:rx="9.2857141" sodipodi:cy="658.07648" sodipodi:cx="166.42857" id="path4185" style="opacity:1;fill:#000000;fill-opacity:1;stroke:none;stroke-width:1.60300004;stroke-miterlimit:4;stroke-dasharray:none;stroke-opacity:1;filter:url(#filter3976)" sodipodi:type="arc"/>
          <path sodipodi:type="arc" style="opacity:1;fill:url(#linearGradient6043);fill-opacity:1;stroke:none;stroke-width:1.60300004;stroke-miterlimit:4;stroke-dasharray:none;stroke-opacity:1" id="path4187" sodipodi:cx="166.42857" sodipodi:cy="658.07648" sodipodi:rx="9.2857141" sodipodi:ry="8.5714283" d="M 175.71429,658.07648 A 9.2857141,8.5714283 0 1 1 157.14286,658.07648 A 9.2857141,8.5714283 0 1 1 175.71429,658.07648 z" transform="matrix(0.994656, -0.103245, 0.0559243, 0.538772, 188.373, 248.206)"/>
          <path transform="matrix(0.994656, -0.103245, 0.0559243, 0.538772, 188.373, 248.206)" d="M 175.71429,658.07648 A 9.2857141,8.5714283 0 1 1 157.14286,658.07648 A 9.2857141,8.5714283 0 1 1 175.71429,658.07648 z" sodipodi:ry="8.5714283" sodipodi:rx="9.2857141" sodipodi:cy="658.07648" sodipodi:cx="166.42857" id="path4189" style="opacity:1;fill:url(#linearGradient6045);fill-opacity:1;stroke:none;stroke-width:1.60300004;stroke-miterlimit:4;stroke-dasharray:none;stroke-opacity:1;filter:url(#filter4174)" sodipodi:type="arc"/>
        </g>
        <g transform="matrix(0.729693, 0, 0, 0.729693, 283.113, 154.818)" id="g4195">
          <path sodipodi:type="arc" style="opacity:1;fill:#000000;fill-opacity:1;stroke:none;stroke-width:1.60300004;stroke-miterlimit:4;stroke-dasharray:none;stroke-opacity:1;filter:url(#filter3976)" id="path4197" sodipodi:cx="166.42857" sodipodi:cy="658.07648" sodipodi:rx="9.2857141" sodipodi:ry="8.5714283" d="M 175.71429,658.07648 A 9.2857141,8.5714283 0 1 1 157.14286,658.07648 A 9.2857141,8.5714283 0 1 1 175.71429,658.07648 z" transform="matrix(0.994656, -0.103245, 0.0559243, 0.538772, 188.373, 247.492)"/>
          <path transform="matrix(0.994656, -0.103245, 0.0559243, 0.538772, 188.373, 248.206)" d="M 175.71429,658.07648 A 9.2857141,8.5714283 0 1 1 157.14286,658.07648 A 9.2857141,8.5714283 0 1 1 175.71429,658.07648 z" sodipodi:ry="8.5714283" sodipodi:rx="9.2857141" sodipodi:cy="658.07648" sodipodi:cx="166.42857" id="path4199" style="opacity:1;fill:url(#linearGradient6047);fill-opacity:1;stroke:none;stroke-width:1.60300004;stroke-miterlimit:4;stroke-dasharray:none;stroke-opacity:1" sodipodi:type="arc"/>
          <path sodipodi:type="arc" style="opacity:1;fill:url(#linearGradient6049);fill-opacity:1;stroke:none;stroke-width:1.60300004;stroke-miterlimit:4;stroke-dasharray:none;stroke-opacity:1;filter:url(#filter4174)" id="path4201" sodipodi:cx="166.42857" sodipodi:cy="658.07648" sodipodi:rx="9.2857141" sodipodi:ry="8.5714283" d="M 175.71429,658.07648 A 9.2857141,8.5714283 0 1 1 157.14286,658.07648 A 9.2857141,8.5714283 0 1 1 175.71429,658.07648 z" transform="matrix(0.994656, -0.103245, 0.0559243, 0.538772, 188.373, 248.206)"/>
        </g>
        <g id="g4207" transform="matrix(0.652462, 0, 0, 0.652462, 372.574, 219.622)">
          <path transform="matrix(0.994656, -0.103245, 0.0559243, 0.538772, 188.373, 247.492)" d="M 175.71429,658.07648 A 9.2857141,8.5714283 0 1 1 157.14286,658.07648 A 9.2857141,8.5714283 0 1 1 175.71429,658.07648 z" sodipodi:ry="8.5714283" sodipodi:rx="9.2857141" sodipodi:cy="658.07648" sodipodi:cx="166.42857" id="path4209" style="opacity:1;fill:#000000;fill-opacity:1;stroke:none;stroke-width:1.60300004;stroke-miterlimit:4;stroke-dasharray:none;stroke-opacity:1;filter:url(#filter3976)" sodipodi:type="arc"/>
          <path sodipodi:type="arc" style="opacity:1;fill:url(#linearGradient6051);fill-opacity:1;stroke:none;stroke-width:1.60300004;stroke-miterlimit:4;stroke-dasharray:none;stroke-opacity:1" id="path4211" sodipodi:cx="166.42857" sodipodi:cy="658.07648" sodipodi:rx="9.2857141" sodipodi:ry="8.5714283" d="M 175.71429,658.07648 A 9.2857141,8.5714283 0 1 1 157.14286,658.07648 A 9.2857141,8.5714283 0 1 1 175.71429,658.07648 z" transform="matrix(0.994656, -0.103245, 0.0559243, 0.538772, 188.373, 248.206)"/>
          <path transform="matrix(0.994656, -0.103245, 0.0559243, 0.538772, 188.373, 248.206)" d="M 175.71429,658.07648 A 9.2857141,8.5714283 0 1 1 157.14286,658.07648 A 9.2857141,8.5714283 0 1 1 175.71429,658.07648 z" sodipodi:ry="8.5714283" sodipodi:rx="9.2857141" sodipodi:cy="658.07648" sodipodi:cx="166.42857" id="path4213" style="opacity:1;fill:url(#linearGradient6053);fill-opacity:1;stroke:none;stroke-width:1.60300004;stroke-miterlimit:4;stroke-dasharray:none;stroke-opacity:1;filter:url(#filter4174)" sodipodi:type="arc"/>
        </g>
        <g transform="matrix(0.507337, 0, 0, 0.507337, 407.934, 341.816)" id="g4219">
          <path sodipodi:type="arc" style="opacity:1;fill:#000000;fill-opacity:1;stroke:none;stroke-width:1.60300004;stroke-miterlimit:4;stroke-dasharray:none;stroke-opacity:1;filter:url(#filter3976)" id="path4221" sodipodi:cx="166.42857" sodipodi:cy="658.07648" sodipodi:rx="9.2857141" sodipodi:ry="8.5714283" d="M 175.71429,658.07648 A 9.2857141,8.5714283 0 1 1 157.14286,658.07648 A 9.2857141,8.5714283 0 1 1 175.71429,658.07648 z" transform="matrix(0.994656, -0.103245, 0.0559243, 0.538772, 188.373, 247.492)"/>
          <path transform="matrix(0.994656, -0.103245, 0.0559243, 0.538772, 188.373, 248.206)" d="M 175.71429,658.07648 A 9.2857141,8.5714283 0 1 1 157.14286,658.07648 A 9.2857141,8.5714283 0 1 1 175.71429,658.07648 z" sodipodi:ry="8.5714283" sodipodi:rx="9.2857141" sodipodi:cy="658.07648" sodipodi:cx="166.42857" id="path4223" style="opacity:1;fill:url(#linearGradient6055);fill-opacity:1;stroke:none;stroke-width:1.60300004;stroke-miterlimit:4;stroke-dasharray:none;stroke-opacity:1" sodipodi:type="arc"/>
          <path sodipodi:type="arc" style="opacity:1;fill:url(#linearGradient6057);fill-opacity:1;stroke:none;stroke-width:1.60300004;stroke-miterlimit:4;stroke-dasharray:none;stroke-opacity:1;filter:url(#filter4174)" id="path4225" sodipodi:cx="166.42857" sodipodi:cy="658.07648" sodipodi:rx="9.2857141" sodipodi:ry="8.5714283" d="M 175.71429,658.07648 A 9.2857141,8.5714283 0 1 1 157.14286,658.07648 A 9.2857141,8.5714283 0 1 1 175.71429,658.07648 z" transform="matrix(0.994656, -0.103245, 0.0559243, 0.538772, 188.373, 248.206)"/>
        </g>
        <g id="g4231" transform="matrix(0.536616, 0, 0, 0.536616, 316.765, 348.83)">
          <path transform="matrix(0.994656, -0.103245, 0.0559243, 0.538772, 188.373, 247.492)" d="M 175.71429,658.07648 A 9.2857141,8.5714283 0 1 1 157.14286,658.07648 A 9.2857141,8.5714283 0 1 1 175.71429,658.07648 z" sodipodi:ry="8.5714283" sodipodi:rx="9.2857141" sodipodi:cy="658.07648" sodipodi:cx="166.42857" id="path4233" style="opacity:1;fill:#000000;fill-opacity:1;stroke:none;stroke-width:1.60300004;stroke-miterlimit:4;stroke-dasharray:none;stroke-opacity:1;filter:url(#filter3976)" sodipodi:type="arc"/>
          <path sodipodi:type="arc" style="opacity:1;fill:url(#linearGradient6059);fill-opacity:1;stroke:none;stroke-width:1.60300004;stroke-miterlimit:4;stroke-dasharray:none;stroke-opacity:1" id="path4235" sodipodi:cx="166.42857" sodipodi:cy="658.07648" sodipodi:rx="9.2857141" sodipodi:ry="8.5714283" d="M 175.71429,658.07648 A 9.2857141,8.5714283 0 1 1 157.14286,658.07648 A 9.2857141,8.5714283 0 1 1 175.71429,658.07648 z" transform="matrix(0.994656, -0.103245, 0.0559243, 0.538772, 188.373, 248.206)"/>
          <path transform="matrix(0.994656, -0.103245, 0.0559243, 0.538772, 188.373, 248.206)" d="M 175.71429,658.07648 A 9.2857141,8.5714283 0 1 1 157.14286,658.07648 A 9.2857141,8.5714283 0 1 1 175.71429,658.07648 z" sodipodi:ry="8.5714283" sodipodi:rx="9.2857141" sodipodi:cy="658.07648" sodipodi:cx="166.42857" id="path4237" style="opacity:1;fill:url(#linearGradient6061);fill-opacity:1;stroke:none;stroke-width:1.60300004;stroke-miterlimit:4;stroke-dasharray:none;stroke-opacity:1;filter:url(#filter4174)" sodipodi:type="arc"/>
        </g>
        <g transform="matrix(0.498, 0, 0, 0.498, 77.4956, 403.232)" id="g4243">
          <path sodipodi:type="arc" style="opacity:1;fill:#000000;fill-opacity:1;stroke:none;stroke-width:1.60300004;stroke-miterlimit:4;stroke-dasharray:none;stroke-opacity:1;filter:url(#filter3976)" id="path4245" sodipodi:cx="166.42857" sodipodi:cy="658.07648" sodipodi:rx="9.2857141" sodipodi:ry="8.5714283" d="M 175.71429,658.07648 A 9.2857141,8.5714283 0 1 1 157.14286,658.07648 A 9.2857141,8.5714283 0 1 1 175.71429,658.07648 z" transform="matrix(0.994656, -0.103245, 0.0559243, 0.538772, 188.373, 247.492)"/>
          <path transform="matrix(0.994656, -0.103245, 0.0559243, 0.538772, 188.373, 248.206)" d="M 175.71429,658.07648 A 9.2857141,8.5714283 0 1 1 157.14286,658.07648 A 9.2857141,8.5714283 0 1 1 175.71429,658.07648 z" sodipodi:ry="8.5714283" sodipodi:rx="9.2857141" sodipodi:cy="658.07648" sodipodi:cx="166.42857" id="path4247" style="opacity:1;fill:url(#linearGradient6063);fill-opacity:1;stroke:none;stroke-width:1.60300004;stroke-miterlimit:4;stroke-dasharray:none;stroke-opacity:1" sodipodi:type="arc"/>
          <path sodipodi:type="arc" style="opacity:1;fill:url(#linearGradient6065);fill-opacity:1;stroke:none;stroke-width:1.60300004;stroke-miterlimit:4;stroke-dasharray:none;stroke-opacity:1;filter:url(#filter4174)" id="path4249" sodipodi:cx="166.42857" sodipodi:cy="658.07648" sodipodi:rx="9.2857141" sodipodi:ry="8.5714283" d="M 175.71429,658.07648 A 9.2857141,8.5714283 0 1 1 157.14286,658.07648 A 9.2857141,8.5714283 0 1 1 175.71429,658.07648 z" transform="matrix(0.994656, -0.103245, 0.0559243, 0.538772, 188.373, 248.206)"/>
        </g>
        <g id="g4255" transform="matrix(0.648098, 0, 0, 0.648098, -53.7614, 306.154)">
          <path transform="matrix(0.994656, -0.103245, 0.0559243, 0.538772, 188.373, 247.492)" d="M 175.71429,658.07648 A 9.2857141,8.5714283 0 1 1 157.14286,658.07648 A 9.2857141,8.5714283 0 1 1 175.71429,658.07648 z" sodipodi:ry="8.5714283" sodipodi:rx="9.2857141" sodipodi:cy="658.07648" sodipodi:cx="166.42857" id="path4257" style="opacity:1;fill:#000000;fill-opacity:1;stroke:none;stroke-width:1.60300004;stroke-miterlimit:4;stroke-dasharray:none;stroke-opacity:1;filter:url(#filter3976)" sodipodi:type="arc"/>
          <path sodipodi:type="arc" style="opacity:1;fill:url(#linearGradient6067);fill-opacity:1;stroke:none;stroke-width:1.60300004;stroke-miterlimit:4;stroke-dasharray:none;stroke-opacity:1" id="path4259" sodipodi:cx="166.42857" sodipodi:cy="658.07648" sodipodi:rx="9.2857141" sodipodi:ry="8.5714283" d="M 175.71429,658.07648 A 9.2857141,8.5714283 0 1 1 157.14286,658.07648 A 9.2857141,8.5714283 0 1 1 175.71429,658.07648 z" transform="matrix(0.994656, -0.103245, 0.0559243, 0.538772, 188.373, 248.206)"/>
          <path transform="matrix(0.994656, -0.103245, 0.0559243, 0.538772, 188.373, 248.206)" d="M 175.71429,658.07648 A 9.2857141,8.5714283 0 1 1 157.14286,658.07648 A 9.2857141,8.5714283 0 1 1 175.71429,658.07648 z" sodipodi:ry="8.5714283" sodipodi:rx="9.2857141" sodipodi:cy="658.07648" sodipodi:cx="166.42857" id="path4261" style="opacity:1;fill:url(#linearGradient6069);fill-opacity:1;stroke:none;stroke-width:1.60300004;stroke-miterlimit:4;stroke-dasharray:none;stroke-opacity:1;filter:url(#filter4174)" sodipodi:type="arc"/>
        </g>
        <g transform="matrix(0.961385, 0, 0, 0.961385, -193.27, 84.4025)" id="g4267">
          <path sodipodi:type="arc" style="opacity:1;fill:#000000;fill-opacity:1;stroke:none;stroke-width:1.60300004;stroke-miterlimit:4;stroke-dasharray:none;stroke-opacity:1;filter:url(#filter3976)" id="path4269" sodipodi:cx="166.42857" sodipodi:cy="658.07648" sodipodi:rx="9.2857141" sodipodi:ry="8.5714283" d="M 175.71429,658.07648 A 9.2857141,8.5714283 0 1 1 157.14286,658.07648 A 9.2857141,8.5714283 0 1 1 175.71429,658.07648 z" transform="matrix(0.994656, -0.103245, 0.0559243, 0.538772, 188.373, 247.492)"/>
          <path transform="matrix(0.994656, -0.103245, 0.0559243, 0.538772, 188.373, 248.206)" d="M 175.71429,658.07648 A 9.2857141,8.5714283 0 1 1 157.14286,658.07648 A 9.2857141,8.5714283 0 1 1 175.71429,658.07648 z" sodipodi:ry="8.5714283" sodipodi:rx="9.2857141" sodipodi:cy="658.07648" sodipodi:cx="166.42857" id="path4271" style="opacity:1;fill:url(#linearGradient6071);fill-opacity:1;stroke:none;stroke-width:1.60300004;stroke-miterlimit:4;stroke-dasharray:none;stroke-opacity:1" sodipodi:type="arc"/>
          <path sodipodi:type="arc" style="opacity:1;fill:url(#linearGradient6073);fill-opacity:1;stroke:none;stroke-width:1.60300004;stroke-miterlimit:4;stroke-dasharray:none;stroke-opacity:1;filter:url(#filter4174)" id="path4273" sodipodi:cx="166.42857" sodipodi:cy="658.07648" sodipodi:rx="9.2857141" sodipodi:ry="8.5714283" d="M 175.71429,658.07648 A 9.2857141,8.5714283 0 1 1 157.14286,658.07648 A 9.2857141,8.5714283 0 1 1 175.71429,658.07648 z" transform="matrix(0.994656, -0.103245, 0.0559243, 0.538772, 188.373, 248.206)"/>
        </g>
        <g id="g4279" transform="matrix(0.806923, 0, 0, 0.806923, -34.3479, 134.012)">
          <path transform="matrix(0.994656, -0.103245, 0.0559243, 0.538772, 188.373, 247.492)" d="M 175.71429,658.07648 A 9.2857141,8.5714283 0 1 1 157.14286,658.07648 A 9.2857141,8.5714283 0 1 1 175.71429,658.07648 z" sodipodi:ry="8.5714283" sodipodi:rx="9.2857141" sodipodi:cy="658.07648" sodipodi:cx="166.42857" id="path4281" style="opacity:1;fill:#000000;fill-opacity:1;stroke:none;stroke-width:1.60300004;stroke-miterlimit:4;stroke-dasharray:none;stroke-opacity:1;filter:url(#filter3976)" sodipodi:type="arc"/>
          <path sodipodi:type="arc" style="opacity:1;fill:url(#linearGradient6075);fill-opacity:1;stroke:none;stroke-width:1.60300004;stroke-miterlimit:4;stroke-dasharray:none;stroke-opacity:1" id="path4283" sodipodi:cx="166.42857" sodipodi:cy="658.07648" sodipodi:rx="9.2857141" sodipodi:ry="8.5714283" d="M 175.71429,658.07648 A 9.2857141,8.5714283 0 1 1 157.14286,658.07648 A 9.2857141,8.5714283 0 1 1 175.71429,658.07648 z" transform="matrix(0.994656, -0.103245, 0.0559243, 0.538772, 188.373, 248.206)"/>
          <path transform="matrix(0.994656, -0.103245, 0.0559243, 0.538772, 188.373, 248.206)" d="M 175.71429,658.07648 A 9.2857141,8.5714283 0 1 1 157.14286,658.07648 A 9.2857141,8.5714283 0 1 1 175.71429,658.07648 z" sodipodi:ry="8.5714283" sodipodi:rx="9.2857141" sodipodi:cy="658.07648" sodipodi:cx="166.42857" id="path4285" style="opacity:1;fill:url(#linearGradient6077);fill-opacity:1;stroke:none;stroke-width:1.60300004;stroke-miterlimit:4;stroke-dasharray:none;stroke-opacity:1;filter:url(#filter4174)" sodipodi:type="arc"/>
        </g>
        <g transform="matrix(0.304924, 0, 0, 0.304924, 297.148, 513.245)" id="g5513">
          <path sodipodi:type="arc" style="opacity:1;fill:#000000;fill-opacity:1;stroke:none;stroke-width:1.60300004;stroke-miterlimit:4;stroke-dasharray:none;stroke-opacity:1;filter:url(#filter3976)" id="path5515" sodipodi:cx="166.42857" sodipodi:cy="658.07648" sodipodi:rx="9.2857141" sodipodi:ry="8.5714283" d="M 175.71429,658.07648 A 9.2857141,8.5714283 0 1 1 157.14286,658.07648 A 9.2857141,8.5714283 0 1 1 175.71429,658.07648 z" transform="matrix(0.994656, -0.103245, 0.0559243, 0.538772, 188.373, 247.492)"/>
          <path transform="matrix(0.994656, -0.103245, 0.0559243, 0.538772, 188.373, 248.206)" d="M 175.71429,658.07648 A 9.2857141,8.5714283 0 1 1 157.14286,658.07648 A 9.2857141,8.5714283 0 1 1 175.71429,658.07648 z" sodipodi:ry="8.5714283" sodipodi:rx="9.2857141" sodipodi:cy="658.07648" sodipodi:cx="166.42857" id="path5517" style="opacity:1;fill:url(#linearGradient6079);fill-opacity:1;stroke:none;stroke-width:1.60300004;stroke-miterlimit:4;stroke-dasharray:none;stroke-opacity:1" sodipodi:type="arc"/>
          <path sodipodi:type="arc" style="opacity:1;fill:url(#linearGradient6081);fill-opacity:1;stroke:none;stroke-width:1.60300004;stroke-miterlimit:4;stroke-dasharray:none;stroke-opacity:1;filter:url(#filter4174)" id="path5519" sodipodi:cx="166.42857" sodipodi:cy="658.07648" sodipodi:rx="9.2857141" sodipodi:ry="8.5714283" d="M 175.71429,658.07648 A 9.2857141,8.5714283 0 1 1 157.14286,658.07648 A 9.2857141,8.5714283 0 1 1 175.71429,658.07648 z" transform="matrix(0.994656, -0.103245, 0.0559243, 0.538772, 188.373, 248.206)"/>
        </g>
      </g>
      <path inkscape:export-ydpi="90" inkscape:export-xdpi="90" inkscape:export-filename="/home/ricardo/Desktop/luz.png" sodipodi:nodetypes="ccccc" id="path5629" d="M 462.85714,346.64789 L 792.85714,803.79075 L 101.42857,800.93361 L 244.28572,378.07647 C 308.07312,342.28478 383.83167,329.10634 462.85714,346.64789 z" style="opacity:0.51202752;fill:#ffffff;fill-rule:evenodd;stroke:#000000;stroke-width:1px;stroke-linecap:butt;stroke-linejoin:miter;stroke-opacity:1;filter:url(#filter5723)"/>
    </g>
  </g>
</svg>